HIERARCHY
ROOT joint_0
{
	OFFSET 0.000000 0.000000 0.000000
	CHANNELS 6 Xposition Yposition Zposition Zrotation Yrotation Xrotation 
	JOINT joint_1
	{
		OFFSET 6.579712 -2.778931 100.531982
		CHANNELS 3 Zrotation Yrotation Xrotation
		JOINT joint_2
		{
			OFFSET -3.313232 -1.302856 91.974976
			CHANNELS 3 Zrotation Yrotation Xrotation
			JOINT joint_3
			{
				OFFSET -3.421509 -1.641846 91.864014
				CHANNELS 3 Zrotation Yrotation Xrotation
				JOINT joint_4
				{
					OFFSET 7.697388 -4.642578 123.278931
					CHANNELS 3 Zrotation Yrotation Xrotation
					JOINT joint_5
					{
						OFFSET 24.842529 -5.941528 79.695068
						CHANNELS 3 Zrotation Yrotation Xrotation
						End Site
						{
							OFFSET 0.000000 0.000000 0.000000
						}
					}
				}
				JOINT joint_6
				{
					OFFSET -0.159668 -29.112976 68.364014
					CHANNELS 3 Zrotation Yrotation Xrotation
					JOINT joint_7
					{
						OFFSET -18.356079 -115.987061 -20.069092
						CHANNELS 3 Zrotation Yrotation Xrotation
						JOINT joint_8
						{
							OFFSET 31.719482 -11.733276 -267.170898
							CHANNELS 3 Zrotation Yrotation Xrotation
							JOINT joint_9
							{
								OFFSET 29.329956 -5.879517 -234.654053
								CHANNELS 3 Zrotation Yrotation Xrotation
								End Site
								{
									OFFSET 0.000000 0.000000 0.000000
								}
							}
						}
					}
				}
				JOINT joint_10
				{
					OFFSET 8.802979 23.897949 69.798950
					CHANNELS 3 Zrotation Yrotation Xrotation
					JOINT joint_11
					{
						OFFSET 21.159058 115.524292 -19.981934
						CHANNELS 3 Zrotation Yrotation Xrotation
						JOINT joint_12
						{
							OFFSET 18.809204 5.403442 -268.593018
							CHANNELS 3 Zrotation Yrotation Xrotation
							JOINT joint_13
							{
								OFFSET 20.807861 0.421265 -235.639038
								CHANNELS 3 Zrotation Yrotation Xrotation
								End Site
								{
									OFFSET 0.000000 0.000000 0.000000
								}
							}
						}
					}
				}
			}
		}
	}
	JOINT joint_14
	{
		OFFSET -9.713379 -79.513916 -99.348022
		CHANNELS 3 Zrotation Yrotation Xrotation
		JOINT joint_15
		{
			OFFSET -40.607788 -6.518372 -502.938019
			CHANNELS 3 Zrotation Yrotation Xrotation
			JOINT joint_16
			{
				OFFSET -19.807617 -7.437378 -399.590012
				CHANNELS 3 Zrotation Yrotation Xrotation
				JOINT joint_17
				{
					OFFSET 171.701660 -44.751282 -77.782000
					CHANNELS 3 Zrotation Yrotation Xrotation
					End Site
					{
						OFFSET 0.000000 0.000000 0.000000
					}
				}
			}
		}
	}
	JOINT joint_18
	{
		OFFSET 17.854858 79.618652 -98.128052
		CHANNELS 3 Zrotation Yrotation Xrotation
		JOINT joint_19
		{
			OFFSET -24.848877 16.861816 -503.722992
			CHANNELS 3 Zrotation Yrotation Xrotation
			JOINT joint_20
			{
				OFFSET -30.162476 14.470093 -398.750008
				CHANNELS 3 Zrotation Yrotation Xrotation
				JOINT joint_21
				{
					OFFSET 176.096680 -10.987549 -80.021000
					CHANNELS 3 Zrotation Yrotation Xrotation
					End Site
					{
						OFFSET 0.000000 0.000000 0.000000
					}
				}
			}
		}
	}
}
MOTION
Frames: 8
Frame Time: 0.016667
-2445.735840 935.220642 1093.280029 4.125152 4.248506 0.806888 -1.169286 -6.998472 -1.139447 -0.997157 0.936376 0.049354 -1.057690 -1.470875 -0.212429 -2.500957 -3.769667 6.876087 0.000000 0.000000 0.000000 -6.056795 13.128776 -5.064365 -6.157911 3.134918 -5.214311 -179.132334 -68.068872 -159.350513 0.000000 0.000000 0.000000 2.511354 4.239385 4.940763 8.033360 7.390662 4.703701 -176.070518 -56.938472 146.039104 0.000000 0.000000 0.000000 0.043062 1.421295 -1.875026 -0.345875 1.697651 2.713701 -0.032780 -4.217041 -1.112774 0.000000 0.000000 0.000000 1.349350 0.826263 -0.380272 1.392978 2.581321 -0.297709 1.089014 -5.193517 0.163424 0.000000 0.000000 0.000000 
-2445.232178 936.087219 1093.097046 4.482483 4.282668 0.717464 -1.244763 -6.754321 -1.010561 -1.080373 0.923674 -0.055474 -1.130835 -1.402182 -0.120834 -2.577420 -3.859195 7.105326 0.000000 0.000000 0.000000 -5.806881 11.654192 -4.993535 -7.954921 2.460356 -6.709835 179.801977 -68.056318 -157.297597 0.000000 0.000000 0.000000 2.122672 2.566192 4.457138 8.356818 6.579863 4.425827 -175.865768 -58.720038 144.903977 0.000000 0.000000 0.000000 -0.093727 1.326410 -1.764238 -0.478123 1.955839 2.708463 -0.152678 -4.343615 -1.199419 0.000000 0.000000 0.000000 1.244611 0.718352 -0.327247 1.296065 2.731363 -0.231926 0.992357 -5.321245 0.112087 0.000000 0.000000 0.000000 
-2444.758301 936.714783 1093.010010 4.791131 4.314980 0.658544 -1.303065 -6.504212 -0.873233 -1.148248 0.906216 -0.135225 -1.190482 -1.335812 -0.051207 -2.632135 -3.970918 7.259839 0.000000 0.000000 0.000000 -5.630597 10.320487 -4.914330 -9.546639 1.811531 -8.030478 178.878998 -68.084425 -155.376732 0.000000 0.000000 0.000000 1.866276 1.012399 4.012583 9.045929 5.702804 4.647641 -175.380767 -60.098586 143.385483 0.000000 0.000000 0.000000 -0.211745 1.193381 -1.680077 -0.595153 2.285868 2.701871 -0.255299 -4.489676 -1.283407 0.000000 0.000000 0.000000 1.151118 0.603339 -0.288690 1.211491 2.903731 -0.183485 0.906590 -5.425559 0.067092 0.000000 0.000000 0.000000 
-2444.390381 936.835938 1093.060059 5.032736 4.325137 0.656100 -1.329608 -6.224207 -0.741632 -1.185454 0.879651 -0.159545 -1.224056 -1.271243 -0.027159 -2.649231 -4.104713 7.287199 0.000000 0.000000 0.000000 -5.581190 9.196872 -4.884198 -10.772126 1.208367 -8.973553 178.237313 -68.366248 -153.635185 0.000000 0.000000 0.000000 1.781384 -0.533129 3.646660 10.642121 4.579617 5.806374 -174.247543 -60.582804 140.584027 0.000000 0.000000 0.000000 -0.304031 1.034325 -1.637389 -0.690791 2.691576 2.690623 -0.334817 -4.646191 -1.359775 0.000000 0.000000 0.000000 1.070801 0.495654 -0.265923 1.142190 3.104136 -0.177907 0.833020 -5.489463 0.030101 0.000000 0.000000 0.000000 
-2444.052490 936.718079 1093.207031 5.224859 4.332257 0.684716 -1.336877 -5.938129 -0.605511 -1.203763 0.849584 -0.160625 -1.240898 -1.210874 -0.022110 -2.647584 -4.262712 7.248638 0.000000 0.000000 0.000000 -5.610871 8.278442 -4.905617 -11.754834 0.648729 -9.673747 177.778657 -68.680637 -152.110200 0.000000 0.000000 0.000000 1.825303 -2.064816 3.285465 12.748215 3.324426 7.412500 -172.797238 -60.398731 137.097049 0.000000 0.000000 0.000000 -0.377315 0.837296 -1.622375 -0.771025 3.169344 2.677431 -0.396612 -4.819474 -1.432584 0.000000 0.000000 0.000000 1.002023 0.381164 -0.258726 1.085445 3.327074 -0.189505 0.770712 -5.528816 -0.000316 0.000000 0.000000 0.000000 
-2443.707275 936.647705 1093.465942 5.362014 4.360549 0.703151 -1.328405 -5.660969 -0.441447 -1.207657 0.815883 -0.165538 -1.243458 -1.153026 -0.016905 -2.641789 -4.421395 7.199235 0.000000 0.000000 0.000000 -5.555435 7.588523 -4.919968 -12.126908 0.234103 -9.764854 177.620755 -69.214318 -151.534097 0.000000 0.000000 0.000000 1.836961 -3.314701 2.907041 14.354185 2.333234 8.470306 -171.739291 -60.331643 134.407199 0.000000 0.000000 0.000000 -0.426593 0.568733 -1.607147 -0.828966 3.743878 2.659691 -0.432962 -5.015955 -1.500101 0.000000 0.000000 0.000000 0.956438 0.229963 -0.277325 1.050519 3.590901 -0.147034 0.732737 -5.578441 -0.020538 0.000000 0.000000 0.000000 
-2443.354492 936.678833 1093.909058 5.427298 4.416072 0.690998 -1.299051 -5.391534 -0.221865 -1.192537 0.774559 -0.174724 -1.226669 -1.092085 -0.010470 -2.628283 -4.584444 7.127200 0.000000 0.000000 0.000000 -5.306928 7.241978 -4.923372 -11.443445 0.064234 -8.812798 177.955530 -70.179670 -152.690011 0.000000 0.000000 0.000000 1.714120 -3.982605 2.638185 14.590988 1.948770 8.424608 -171.579283 -61.204367 133.847247 0.000000 0.000000 0.000000 -0.446434 0.232731 -1.573474 -0.856664 4.387285 2.633119 -0.437804 -5.202906 -1.551118 0.000000 0.000000 0.000000 0.943976 0.035403 -0.321519 1.046302 3.900417 -0.018035 0.730075 -5.646248 -0.026190 0.000000 0.000000 0.000000 
-2442.993164 936.756531 1094.463989 5.436118 4.493051 0.670148 -1.254590 -5.131574 0.020818 -1.162162 0.728804 -0.176671 -1.194871 -1.032669 -0.009474 -2.605433 -4.746114 7.025656 0.000000 0.000000 0.000000 -4.969920 7.083852 -4.896996 -10.156827 0.005380 -7.315382 178.579381 -71.304376 -154.854977 0.000000 0.000000 0.000000 1.526474 -4.250866 2.488302 13.981073 1.940079 7.788065 -171.979193 -62.569650 134.710760 0.000000 0.000000 0.000000 -0.442283 -0.175218 -1.540769 -0.861790 5.127460 2.601037 -0.416504 -5.407346 -1.595071 0.000000 0.000000 0.000000 0.955415 -0.195321 -0.393114 1.064610 4.249454 0.164913 0.753067 -5.720474 -0.020859 0.000000 0.000000 0.000000 
